<svg id="Layer_1" data-name="Layer 1" xmlns="http://www.w3.org/2000/svg" xmlns:xlink="http://www.w3.org/1999/xlink" viewBox="0 0 304 265"><defs><style>.cls-1{fill:#fff;}.cls-2{fill-opacity:0.5;fill:url(#linear-gradient);}.cls-3{mask:url(#mask);}.cls-4{fill:url(#linear-gradient-2);}.cls-5{fill:url(#linear-gradient-3);}.cls-12,.cls-6{fill:none;}.cls-6{stroke:url(#linear-gradient-4);}.cls-7{fill:#d1ff52;fill-opacity:0.7;fill-rule:evenodd;}.cls-8{fill:url(#linear-gradient-5);}.cls-9{mask:url(#mask-2);}.cls-10{fill:url(#linear-gradient-6);}.cls-11{fill:url(#linear-gradient-7);}.cls-12{stroke:url(#linear-gradient-8);}.cls-13{fill-opacity:0.2;}</style><linearGradient id="linear-gradient" x1="-16.65" y1="144.69" x2="188.65" y2="116.51" gradientTransform="matrix(1, 0, 0, -1, 0, 266)" gradientUnits="userSpaceOnUse"><stop offset="0" stop-color="#d1ff52"/><stop offset="1" stop-color="#64eeac"/></linearGradient><mask id="mask" x="101.09" y="155" width="78.2" height="114.41" maskUnits="userSpaceOnUse"><g id="mask0"><path class="cls-1" d="M101.09,171c0-7.54,0-11.31,2.35-13.66s6.11-2.34,13.65-2.34h37.85l17.85,110h-55.7c-7.54,0-11.31,0-13.65-2.34s-2.35-6.12-2.35-13.66Z"/></g></mask><linearGradient id="linear-gradient-2" x1="-252.02" y1="155.05" x2="-238.7" y2="203.5" gradientTransform="matrix(0.5, 0.87, 0.5, -0.87, 158.21, 626.19)" gradientUnits="userSpaceOnUse"><stop offset="0" stop-color="#d1ff52" stop-opacity="0.34"/><stop offset="1" stop-color="#d1ff52" stop-opacity="0"/></linearGradient><linearGradient id="linear-gradient-3" x1="-250.25" y1="147.99" x2="-237.52" y2="209.36" gradientTransform="matrix(0.5, 0.87, 0.5, -0.87, 162.62, 618.49)" gradientUnits="userSpaceOnUse"><stop offset="0" stop-color="#d1ff52" stop-opacity="0.19"/><stop offset="1" stop-color="#d1ff52" stop-opacity="0.13"/></linearGradient><linearGradient id="linear-gradient-4" x1="144.95" y1="37.15" x2="139.44" y2="8.17" gradientTransform="matrix(1, 0, 0, -1, 0, 266)" gradientUnits="userSpaceOnUse"><stop offset="0" stop-color="#d1ff52" stop-opacity="0"/><stop offset="1" stop-color="#d1ff52" stop-opacity="0.49"/></linearGradient><linearGradient id="linear-gradient-5" x1="320.74" y1="122.23" x2="115.63" y2="150.55" gradientTransform="matrix(1, 0, 0, -1, 0, 266)" gradientUnits="userSpaceOnUse"><stop offset="0" stop-color="#fff" stop-opacity="0.25"/><stop offset="1" stop-color="#fff" stop-opacity="0.1"/></linearGradient><mask id="mask-2" x="124.86" y="-3.66" width="179.14" height="268.66" maskUnits="userSpaceOnUse"><g id="mask1"><path class="cls-1" d="M304,265H174.23l-43-265H304Z"/></g></mask><linearGradient id="linear-gradient-6" x1="168.39" y1="49.12" x2="152.78" y2="2.14" gradientTransform="translate(35.93 -76.95) rotate(30)" gradientUnits="userSpaceOnUse"><stop offset="0" stop-color="#fff" stop-opacity="0.2"/><stop offset="1" stop-opacity="0"/></linearGradient><linearGradient id="linear-gradient-7" x1="252.38" y1="182.25" x2="215.39" y2="226.45" gradientTransform="matrix(0.87, 0.5, 0.87, -0.5, -221.68, 5.83)" gradientUnits="userSpaceOnUse"><stop offset="0" stop-color="#fff" stop-opacity="0.2"/><stop offset="0.36" stop-color="#b5b5b5" stop-opacity="0.2"/><stop offset="1" stop-opacity="0.2"/></linearGradient><linearGradient id="linear-gradient-8" x1="264.47" y1="174" x2="285.07" y2="153.72" gradientTransform="matrix(0.87, 0.5, 0.87, -0.5, -221.68, 5.83)" gradientUnits="userSpaceOnUse"><stop offset="0" stop-color="#fff" stop-opacity="0"/><stop offset="1" stop-color="#fff" stop-opacity="0.3"/></linearGradient></defs><path class="cls-2" d="M0,0H129.77l43,265H0Z"/><g class="cls-3"><ellipse class="cls-4" cx="139.49" cy="242.09" rx="22.22" ry="38.8" transform="translate(-139.91 241.86) rotate(-60)"/><ellipse class="cls-5" cx="143.9" cy="234.4" rx="22.22" ry="38.8" transform="translate(-131.05 241.83) rotate(-60)"/><path class="cls-6" d="M175,234.4c8.71,14.85,1.87,26.89-15.27,26.89s-38.12-12-46.83-26.89-1.88-26.89,15.27-26.89S166.23,219.55,175,234.4Z"/><path class="cls-7" d="M147.74,222.68H123.89l6,10.29,1,1.67.54.93h6l-.54-.93-1-1.67-3-5.13h17.89Zm8.94,5.16h-6l4.46,7.73h6Zm-22.36,12.89h6l1.48,2.57,3,5.16h-6l-3-5.16-.73-1.27Zm3-5.16h17.88l3,5.16H140.28Z"/></g><path class="cls-8" d="M304,265H174.23l-43-265H304Z"/><g class="cls-9"><ellipse class="cls-10" cx="161.56" cy="28.56" rx="35.92" ry="20.74" transform="translate(7.36 84.61) rotate(-30)"/><ellipse class="cls-11" cx="157.65" cy="21.8" rx="35.92" ry="20.74" transform="translate(10.22 81.75) rotate(-30)"/><ellipse class="cls-12" cx="157.65" cy="21.8" rx="35.31" ry="20.38" transform="translate(10.22 81.75) rotate(-30)"/><path class="cls-13" d="M175.61,12.06a2.17,2.17,0,0,0-1.65-.93,7.53,7.53,0,0,0-3.26.87c-.94.39-2.93,1.55-3.68,1.9s-2.35.68-5.29,1.87S147,21.92,147,21.92l2.29,0-13,4.62h1l-2.05,1a4.33,4.33,0,0,0,2.58-.31l-.16.28s14.69-4.21,16.43-3.12l-1.66.37,2.38.13A1.78,1.78,0,0,0,155.2,27c.93.81.71,1.26.71,1.26s-.89.26-1.07.58a11.18,11.18,0,0,1,2.23-.26,7.15,7.15,0,0,1,1.72.26s.13-.35-.71-.58a2.53,2.53,0,0,1-1.44-1.67,2.41,2.41,0,0,1,.93-2.3c.78-.76,2.19-1.18,5.25-2.27,3.6-1.3,4.81-2.25,5.65-3s2.29-2.23,3-2.93a8.85,8.85,0,0,1,2.34-1.66c.59-.29,2.89-.92,2.89-.92S175.89,12.38,175.61,12.06Z"/></g></svg>