<svg width="34" height="36" viewBox="0 0 34 36" fill="none" xmlns="http://www.w3.org/2000/svg">
<path fill-rule="evenodd" clip-rule="evenodd" d="M13.2878 9.32396H9.06492C8.77695 9.32317 8.50042 9.43662 8.29598 9.63944C8.09155 9.84225 7.97589 10.1179 7.97437 10.4058V14.5967C7.97589 14.8847 8.09155 15.1603 8.29598 15.3631C8.50042 15.5659 8.77695 15.6794 9.06492 15.6786H13.2879C13.5759 15.6794 13.8525 15.566 14.057 15.3632C14.2615 15.1604 14.3773 14.8848 14.3789 14.5967V10.4058C14.3773 10.1178 14.2615 9.84215 14.057 9.63935C13.8525 9.43655 13.5759 9.32316 13.2878 9.32396ZM13.0945 10.2643H9.21041C8.8872 10.2643 8.72559 10.4165 8.72559 10.721V14.382C8.72559 14.6865 8.8872 14.8387 9.21041 14.8387H13.0945C13.4177 14.8387 13.5792 14.6864 13.5792 14.382V10.721C13.5792 10.4165 13.4177 10.2643 13.0945 10.2643Z" fill="white" fill-opacity="0.5"/>
<path d="M16.1593 9.64608H25.9506V10.6211H16.1594L16.1593 9.64608Z" fill="white" fill-opacity="0.5"/>
<path d="M25.9506 14.3815H16.1593L16.1594 15.3565H25.9506V14.3815Z" fill="white" fill-opacity="0.5"/>
<path d="M7.97437 19.4394H25.8669V20.4144H7.97437V19.4394Z" fill="white" fill-opacity="0.5"/>
<path d="M25.8908 24.1741H7.91484L7.91479 25.1491H25.8908V24.1741Z" fill="white" fill-opacity="0.5"/>
<path fill-rule="evenodd" clip-rule="evenodd" d="M29.8252 17.0408L33.732 28.5063C33.7781 28.6408 33.7928 28.7841 33.775 28.9251C33.7572 29.0662 33.7075 29.2013 33.6295 29.3202C33.4547 29.5796 33.1879 29.7628 32.8831 29.8328L29.8252 30.5944V30.9048C29.8252 31.4737 29.2858 31.9348 28.6204 31.9348H24.4405L11.6356 35.1225C11.3172 35.2037 10.9806 35.1734 10.6817 35.0369C10.5436 34.9765 10.419 34.8888 10.3156 34.7791C10.2121 34.6694 10.1319 34.5399 10.0797 34.3984L9.24156 31.9359L9.24118 31.9348H5.34809C4.68279 31.9348 4.14331 31.4737 4.14331 30.9048V16.9585L3.52047 15.1294L3.05687 13.7784L0.711153 6.88467C0.519762 6.31837 0.899825 5.72634 1.56137 5.56078L3.52051 5.07295L3.98129 4.95633L4.14331 4.91571V3.25781C4.14331 2.68889 4.68279 2.22764 5.34809 2.22764L14.9469 2.22759L22.8116 0.268502C23.4735 0.105049 24.1656 0.429706 24.3599 0.994924L24.7797 2.22764H24.7875V2.24988L24.7885 2.25253L24.9765 2.81363L29.57 7.74192L29.69 7.87031L29.7041 7.88583C29.772 7.95561 29.8157 8.04544 29.8285 8.14198C29.8348 8.18905 29.8336 8.23648 29.8252 8.28261V17.0408ZM5.34809 2.9866H23.7141L23.7374 8.17491C23.7395 8.45522 24.0039 8.68233 24.3315 8.68552L26.4041 8.69911H26.508L26.988 8.70286H27.331L28.9374 8.71336V30.9048C28.9368 30.9416 28.9282 30.9779 28.9121 31.011C28.8961 31.0441 28.873 31.0733 28.8445 31.0966C28.7814 31.1486 28.702 31.1767 28.6203 31.1758H27.4837L27.4853 31.1754L5.3479 31.1758C5.17273 31.1758 5.03075 31.0544 5.03075 30.9048V3.25781C5.03134 3.22102 5.03996 3.18479 5.05602 3.15167C5.07207 3.11856 5.09517 3.08935 5.1237 3.0661C5.18672 3.01386 5.26624 2.98569 5.34809 2.9866ZM29.8252 19.8551L32.8487 28.7292C32.8992 28.8784 32.7992 29.0344 32.6248 29.0778L29.8252 29.7753V19.8551ZM21.1544 31.9348H10.2076L10.208 31.9359L10.9726 34.1782C11.0238 34.3269 11.2059 34.4126 11.3803 34.3694L21.1544 31.9348ZM18.2376 2.22764H23.8209L23.4778 1.21617C23.4524 1.15377 23.4083 1.10075 23.3516 1.06437C23.2949 1.02798 23.2284 1.01002 23.161 1.01292C23.1298 1.01311 23.0987 1.01693 23.0683 1.02431L18.2376 2.22764ZM4.14331 14.1491V5.73685L3.52051 5.89308L1.81876 6.31636C1.64481 6.36009 1.54459 6.516 1.59512 6.66483L3.98125 13.6664L4.14236 14.1464L4.14331 14.1491ZM25.7656 7.82459L24.6205 7.81695L24.6016 3.63947L24.88 3.93755L25.4449 4.54416L25.635 4.74909L26.1733 5.31769L28.5022 7.82459H25.7656Z" fill="white" fill-opacity="0.5"/>
</svg>
