<svg id="Layer_1" data-name="Layer 1" xmlns="http://www.w3.org/2000/svg" viewBox="0 0 204 41"><defs><style>.cls-1,.cls-5{fill:#fff;}.cls-2,.cls-4{fill:none;stroke-width:1.26px;}.cls-2{stroke:#fff;}.cls-3{fill:#03FFFF;fill-rule:evenodd;}.cls-4{stroke:#03FFFF;}.cls-5{fill-opacity:0.9;}</style></defs><path d="M30.21,20.14A20.15,20.15,0,1,0,50.36,0,20.15,20.15,0,0,0,30.21,20.14Z"/><path class="cls-1" d="M60.38,12.59a3.37,3.37,0,0,0-1.81-.88,3.65,3.65,0,0,0-2.3.83c-.59.37-1.69,1.48-2.15,1.82s-1.62.64-3.51,1.77S41.35,22,41.35,22l1.92,0L34.7,26.44h.86l-1.23.94a2.77,2.77,0,0,0,2-.29v.26s10.2-4,12.17-3l-1.2.36,2,.12a2.75,2.75,0,0,0,1.23,2c1.17.77,1.2,1.19,1.2,1.19s-.61.25-.61.56a6.23,6.23,0,0,1,1.73-.24,6.63,6.63,0,0,1,1.56.24s-.06-.33-.87-.56a4.75,4.75,0,0,1-2-1.58,2.23,2.23,0,0,1-.33-2.2c.28-.72,1.25-1.13,3.27-2.17,2.38-1.23,2.92-2.14,3.26-2.86s.83-2.13,1.11-2.79A3.72,3.72,0,0,1,60,14.84,14.32,14.32,0,0,1,62,14S60.78,12.91,60.38,12.59Z"/><path class="cls-2" d="M50.36.63h0A19.52,19.52,0,0,1,69.87,20.14h0A19.52,19.52,0,0,1,50.36,39.66h0A19.52,19.52,0,0,1,30.84,20.14h0A19.52,19.52,0,0,1,50.36.63Z"/><path d="M0,20.14A20.15,20.15,0,1,0,20.14,0,20.15,20.15,0,0,0,0,20.14Z"/><path class="cls-3" d="M26.75,10.93H12v9.21h3.69v3.69H26.75V20.14H15.69V14.62H26.75Zm3.69,3.69H26.75v5.52h3.69ZM12,23.83h3.69v5.52H12V23.83Z"/><path class="cls-4" d="M20.14.63h0A19.52,19.52,0,0,1,39.66,20.14h0A19.52,19.52,0,0,1,20.14,39.66h0A19.52,19.52,0,0,1,.63,20.14h0A19.52,19.52,0,0,1,20.14.63Z"/><path class="cls-5" d="M92.81,27a7.72,7.72,0,0,1-4.51,1.35,5.78,5.78,0,0,1-4.89-2.21q-1.66-2.2-1.66-6.37a10.73,10.73,0,0,1,1.62-6.31,5.63,5.63,0,0,1,4.93-2.28,9.51,9.51,0,0,1,2.37.3,6,6,0,0,1,1.88.81l-.63,1.51a7.26,7.26,0,0,0-3.62-.93,3.81,3.81,0,0,0-3.4,1.66,9.61,9.61,0,0,0-1.11,5.24q0,6.89,4.51,6.89a7.72,7.72,0,0,0,3.91-1.17Zm13.26-10.85-.74,1.76a5.21,5.21,0,0,0-2.08-.53,2.93,2.93,0,0,0-1.58.47,4.77,4.77,0,0,0-1.43,1.32,4.87,4.87,0,0,0-.65,1V28H97.78V15.79h1.81v2.47c1-1.84,2.24-2.76,3.8-2.76A6,6,0,0,1,106.07,16.12Zm8.77-.62a5,5,0,0,1,4,1.75,7,7,0,0,1,1.49,4.63,7,7,0,0,1-1.49,4.67,5,5,0,0,1-4,1.77,5,5,0,0,1-4-1.76,7.09,7.09,0,0,1-1.47-4.68,6.87,6.87,0,0,1,1.49-4.63A5,5,0,0,1,114.84,15.5Zm0,11.22a3,3,0,0,0,2.63-1.4,5.92,5.92,0,0,0,1-3.41,5.93,5.93,0,0,0-1-3.47,3.24,3.24,0,0,0-5.27,0,5.89,5.89,0,0,0-.94,3.48,6,6,0,0,0,1,3.43A3,3,0,0,0,114.84,26.72Zm19.87-10.93L133,28h-1.4l-2.87-6.91L125.81,28h-1.4l-1.72-12.21h1.82q1,8.55,1,9l2.24-5.31h1.88l2.22,5.27,1-8.94ZM146.92,28h-1.83V26.24a4.31,4.31,0,0,1-1.61,1.49,4.49,4.49,0,0,1-2.21.59A3.75,3.75,0,0,1,138,26.45a8.47,8.47,0,0,1-1.22-4.74A7.42,7.42,0,0,1,138,17.27a4,4,0,0,1,3.38-1.77,4.41,4.41,0,0,1,3.71,1.87V11.46h1.83Zm-1.83-3.74V19.19a3.74,3.74,0,0,0-3.16-2.11,2.71,2.71,0,0,0-2.39,1.35,6,6,0,0,0-.88,3.38,6.7,6.7,0,0,0,.82,3.49,2.54,2.54,0,0,0,2.27,1.38,3,3,0,0,0,1.4-.38,4.39,4.39,0,0,0,1.32-1.12A2.92,2.92,0,0,0,145.09,24.26ZM159.77,28h-5V13.05h-3.19V11.46h5v15h3.16Zm9.85-12.5a5,5,0,0,1,4,1.75,7,7,0,0,1,1.49,4.63,7,7,0,0,1-1.49,4.67,5.45,5.45,0,0,1-8,0,7.09,7.09,0,0,1-1.48-4.68,6.92,6.92,0,0,1,1.49-4.63A5,5,0,0,1,169.62,15.5Zm0,11.22a3,3,0,0,0,2.63-1.4,5.92,5.92,0,0,0,1-3.41,5.93,5.93,0,0,0-1-3.47,3.25,3.25,0,0,0-5.28,0,6,6,0,0,0-.93,3.48,5.89,5.89,0,0,0,.95,3.43A3,3,0,0,0,169.62,26.72ZM188.35,28h-1.81a7,7,0,0,1-.22-2,4.9,4.9,0,0,1-4.25,2.29,3.46,3.46,0,0,1-2.4-1,3.27,3.27,0,0,1-1-2.5,3.39,3.39,0,0,1,.36-1.59,3,3,0,0,1,1.07-1.16,5.6,5.6,0,0,1,1.71-.75,12.29,12.29,0,0,1,2.39-.39l2.05-.17v-.58c0-2.1-1-3.14-2.93-3.14a6.78,6.78,0,0,0-1.76.3,8.76,8.76,0,0,0-1.81.71l-.48-1.32a10.26,10.26,0,0,1,4.64-1.27q4.17,0,4.17,4.41v5.25A12.13,12.13,0,0,0,188.35,28Zm-2.13-3.62V22.16a31.19,31.19,0,0,0-3.4.43,3.72,3.72,0,0,0-1.59.71,1.71,1.71,0,0,0-.67,1.43,1.66,1.66,0,0,0,.57,1.32,2.16,2.16,0,0,0,1.47.51,3.66,3.66,0,0,0,1.93-.58A5.69,5.69,0,0,0,186.22,24.38ZM201.74,28h-1.83V20.17a4.09,4.09,0,0,0-.52-2.35,1.84,1.84,0,0,0-1.63-.74c-1.12,0-2.32.69-3.6,2.08V28h-1.83V15.79h1.83v1.79a5.71,5.71,0,0,1,4.15-2.08q3.44,0,3.43,4.14Z"/></svg>