<svg width="24" height="25" viewBox="0 0 24 25" fill="none" xmlns="http://www.w3.org/2000/svg">
<path fill-rule="evenodd" clip-rule="evenodd" d="M2 16.5H5.889L11.183 20.832C11.2563 20.8921 11.3451 20.9301 11.4391 20.9416C11.5331 20.9532 11.6284 20.9378 11.714 20.8972C11.7996 20.8567 11.872 20.7926 11.9226 20.7126C11.9732 20.6325 12.0001 20.5397 12 20.445V4.55502C12.0001 4.4603 11.9732 4.36751 11.9226 4.28745C11.872 4.2074 11.7996 4.14337 11.714 4.10282C11.6284 4.06227 11.5331 4.04687 11.4391 4.05841C11.3451 4.06996 11.2563 4.10797 11.183 4.16802L5.889 8.50002H2C1.73478 8.50002 1.48043 8.60538 1.29289 8.79291C1.10536 8.98045 1 9.23481 1 9.50002V15.5C1 15.7652 1.10536 16.0196 1.29289 16.2071C1.48043 16.3947 1.73478 16.5 2 16.5ZM22 11.5H15V13.5H22V11.5ZM15 15.2L21.0622 18.7L20.0622 20.432L14 16.932L15 15.2ZM20.0622 4.5L14 8L15 9.73205L21.0622 6.23205L20.0622 4.5Z" fill="white" fill-opacity="0.9"/>
</svg>

