<svg width="19" height="14" viewBox="0 0 19 14" fill="none" xmlns="http://www.w3.org/2000/svg">
<path d="M1.11381e-05 7C1.07738 5.73693 2.25849 4.56619 3.53101 3.5C5.44201 1.9 8.28801 4.58975e-07 11 5.7752e-07C13.8325 -0.00141746 16.3866 1.70425 17.4706 4.32107C18.5546 6.93789 17.9548 9.95007 15.951 11.952C14.6404 13.2685 12.8576 14.0059 11 14C8.28801 14 5.44201 12.1 3.53101 10.5C2.25849 9.43382 1.07738 8.26307 1.11381e-05 7ZM14 7C14 5.9282 13.4282 4.93782 12.5 4.40193C11.5718 3.86603 10.4282 3.86603 9.50001 4.40193C8.57181 4.93782 8.00001 5.9282 8.00001 7C8.00001 8.65686 9.34316 10 11 10C12.6569 10 14 8.65686 14 7Z" fill="#03FFFF"/>
</svg>
