<svg width="130" height="124" viewBox="0 0 130 124" fill="none" xmlns="http://www.w3.org/2000/svg">
<rect x="35.7681" y="51" width="21" height="21" fill="#03FFFF" stroke="black" stroke-width="4"/>
<rect x="69.7681" y="51" width="21" height="21" fill="#03FFFF" stroke="black" stroke-width="4"/>
<path d="M11.7681 13.5L11.7681 13H115.768V81" stroke="black" stroke-width="4"/>
<path d="M115.692 81.9202L104.845 71.1545" stroke="black" stroke-width="4" stroke-linecap="square"/>
<path d="M115.689 81.8828L126.536 71.1171" stroke="black" stroke-width="4" stroke-linecap="square"/>
<path d="M13.8446 42.0798L24.6917 52.8455" stroke="black" stroke-width="4" stroke-linecap="square"/>
<path d="M13.8471 42.1172L3 52.8829" stroke="black" stroke-width="4" stroke-linecap="square"/>
<path d="M13.7681 43.9831V111H117.768V110.5" stroke="black" stroke-width="4"/>
<g clip-path="url(#clip0)">
<rect x="7.76807" y="2" width="59" height="23" fill="#03FFFF" stroke="black" stroke-width="4"/>
<rect x="62.7681" y="99" width="59" height="23" fill="#03FFFF" stroke="black" stroke-width="4"/>
<path d="M20.2881 12.48H20.8781C21.3714 12.48 21.7281 12.3267 21.9481 12.02L25.6181 7.11C25.7914 6.87667 25.9814 6.71667 26.1881 6.63C26.3947 6.53667 26.6481 6.49 26.9481 6.49H29.5481L24.9281 12.44C24.6281 12.8267 24.3181 13.1033 23.9981 13.27C24.2314 13.3633 24.4414 13.4867 24.6281 13.64C24.8147 13.7867 24.9947 13.9833 25.1681 14.23L29.9081 21H27.2381C27.0647 21 26.9147 20.9867 26.7881 20.96C26.6681 20.9333 26.5614 20.8967 26.4681 20.85C26.3747 20.8033 26.2947 20.7467 26.2281 20.68C26.1614 20.6067 26.0981 20.5233 26.0381 20.43L22.3081 15.21C22.1814 15.03 22.0314 14.9033 21.8581 14.83C21.6847 14.75 21.4414 14.71 21.1281 14.71H20.2881V21H17.2881V6.49H20.2881V12.48ZM39.0543 9.27C38.961 9.42333 38.8643 9.53667 38.7643 9.61C38.671 9.67667 38.5477 9.71 38.3943 9.71C38.2477 9.71 38.0877 9.66 37.9143 9.56C37.7477 9.45333 37.551 9.34 37.3243 9.22C37.0976 9.1 36.8376 8.99 36.5443 8.89C36.251 8.78333 35.9076 8.73 35.5143 8.73C34.821 8.73 34.301 8.88667 33.9543 9.2C33.6076 9.50667 33.4343 9.91 33.4343 10.41C33.4343 10.73 33.5276 10.9967 33.7143 11.21C33.9076 11.4167 34.1577 11.5967 34.4643 11.75C34.7776 11.9033 35.131 12.04 35.5243 12.16C35.9177 12.28 36.321 12.4133 36.7343 12.56C37.1476 12.7 37.551 12.8667 37.9443 13.06C38.3377 13.2533 38.6877 13.4967 38.9943 13.79C39.3077 14.0833 39.5577 14.4433 39.7443 14.87C39.9377 15.29 40.0343 15.8033 40.0343 16.41C40.0343 17.07 39.9176 17.69 39.6843 18.27C39.4577 18.8433 39.1277 19.3467 38.6943 19.78C38.261 20.2067 37.7243 20.5433 37.0843 20.79C36.451 21.0367 35.731 21.16 34.9243 21.16C34.4643 21.16 34.0043 21.1133 33.5443 21.02C33.091 20.9267 32.651 20.7967 32.2243 20.63C31.8043 20.4633 31.4076 20.2633 31.0343 20.03C30.661 19.7967 30.3343 19.5367 30.0543 19.25L30.9343 17.83C31.0076 17.7233 31.1043 17.6367 31.2243 17.57C31.3443 17.4967 31.471 17.46 31.6043 17.46C31.7843 17.46 31.9743 17.5267 32.1743 17.66C32.3743 17.7933 32.6043 17.94 32.8643 18.1C33.1243 18.26 33.4243 18.4067 33.7643 18.54C34.111 18.6733 34.5243 18.74 35.0043 18.74C35.7043 18.74 36.2443 18.58 36.6243 18.26C37.011 17.94 37.2043 17.4633 37.2043 16.83C37.2043 16.4633 37.1077 16.1667 36.9143 15.94C36.7277 15.7133 36.481 15.5233 36.1743 15.37C35.8677 15.2167 35.5177 15.0867 35.1243 14.98C34.731 14.8667 34.3277 14.7433 33.9143 14.61C33.501 14.4767 33.0976 14.3167 32.7043 14.13C32.311 13.9433 31.961 13.6967 31.6543 13.39C31.3476 13.0833 31.0976 12.7033 30.9043 12.25C30.7176 11.7967 30.6243 11.2333 30.6243 10.56C30.6243 10.02 30.731 9.49667 30.9443 8.99C31.1576 8.48333 31.471 8.03333 31.8843 7.64C32.2976 7.24667 32.8043 6.93 33.4043 6.69C34.011 6.45 34.7043 6.33 35.4843 6.33C36.3576 6.33 37.1643 6.46667 37.9043 6.74C38.651 7.00667 39.281 7.38 39.7943 7.86L39.0543 9.27ZM58.2099 6.49V21H55.5599V12.09C55.5599 11.9033 55.5633 11.7033 55.5699 11.49C55.5833 11.2767 55.6033 11.06 55.6299 10.84L51.4799 18.71C51.2533 19.1433 50.9033 19.36 50.4299 19.36H50.0099C49.7766 19.36 49.5699 19.3067 49.3899 19.2C49.2099 19.0867 49.0666 18.9233 48.9599 18.71L44.7899 10.81C44.8099 11.0433 44.8266 11.27 44.8399 11.49C44.8533 11.7033 44.8599 11.9033 44.8599 12.09V21H42.2099V6.49H44.4899C44.6166 6.49 44.7299 6.49333 44.8299 6.5C44.9299 6.50667 45.0166 6.52667 45.0899 6.56C45.1699 6.58667 45.2399 6.63333 45.2999 6.7C45.3666 6.76 45.4299 6.84667 45.4899 6.96L49.5499 14.7C49.6766 14.9333 49.7933 15.1733 49.8999 15.42C50.0133 15.6667 50.1199 15.92 50.2199 16.18C50.3199 15.9133 50.4233 15.6533 50.5299 15.4C50.6433 15.1467 50.7633 14.9033 50.8899 14.67L54.9199 6.96C54.9799 6.84667 55.0433 6.76 55.1099 6.7C55.1766 6.63333 55.2466 6.58667 55.3199 6.56C55.3999 6.52667 55.4866 6.50667 55.5799 6.5C55.6799 6.49333 55.7966 6.49 55.9299 6.49H58.2099Z" fill="#070707"/>
<path d="M77.1881 110.71C78.1281 110.71 78.8147 110.483 79.2481 110.03C79.6881 109.577 79.9081 108.957 79.9081 108.17C79.9081 107.81 79.8514 107.483 79.7381 107.19C79.6314 106.89 79.4647 106.637 79.2381 106.43C79.0181 106.217 78.7381 106.053 78.3981 105.94C78.0581 105.827 77.6547 105.77 77.1881 105.77H75.2881V110.71H77.1881ZM77.1881 103.49C78.1814 103.49 79.0381 103.607 79.7581 103.84C80.4847 104.073 81.0814 104.4 81.5481 104.82C82.0147 105.233 82.3581 105.727 82.5781 106.3C82.8047 106.873 82.9181 107.497 82.9181 108.17C82.9181 108.883 82.8014 109.537 82.5681 110.13C82.3347 110.723 81.9814 111.233 81.5081 111.66C81.0347 112.087 80.4381 112.42 79.7181 112.66C78.9981 112.893 78.1547 113.01 77.1881 113.01H75.2881V118H72.2881V103.49H77.1881ZM97.2571 103.49V118H94.2371V111.75H87.8471V118H84.8271V103.49H87.8471V109.65H94.2371V103.49H97.2571ZM107.956 112.49L106.386 108.05C106.293 107.817 106.193 107.543 106.086 107.23C105.986 106.917 105.889 106.577 105.796 106.21C105.703 106.583 105.603 106.93 105.496 107.25C105.396 107.563 105.299 107.837 105.206 108.07L103.646 112.49H107.956ZM112.996 118H110.666C110.406 118 110.193 117.94 110.026 117.82C109.866 117.693 109.746 117.533 109.666 117.34L108.686 114.57H102.906L101.926 117.34C101.859 117.507 101.743 117.66 101.576 117.8C101.409 117.933 101.199 118 100.946 118H98.5959L104.266 103.49H107.336L112.996 118Z" fill="#070707"/>
</g>
<defs>
<clipPath id="clip0">
<rect width="118" height="124" fill="white" transform="translate(5.76807)"/>
</clipPath>
</defs>
</svg>
