<svg width="106" height="100" viewBox="0 0 106 100" fill="none" xmlns="http://www.w3.org/2000/svg">
<path d="M8 44L8 2H98V44" stroke="black" stroke-width="4"/>
<path d="M53.8231 72.7563L104 50.0976V98H2V50.0976L52.1769 72.7563L53 73.128L53.8231 72.7563Z" stroke="black" stroke-width="4"/>
<path d="M62.5872 24H62.5942L71.2663 33.9907L53.0283 52.1776L34.7359 33.9891L43.412 24H43.6829H43.7H43.7173H43.7522H43.8231H43.841H43.8591H43.8773H43.8955H43.9324H43.9509H43.9695H44.0451H44.0834H44.1027H44.122H44.1415H44.1611H44.2005H44.2803H44.3207H44.3411H44.3615H44.382H44.4026H44.444H44.5279H44.5703H44.5916H44.613H44.787H44.9658H45.0568H45.1028H45.1259H45.149H45.3364H45.723H45.9216H45.9467H45.9718H46.0222H46.0474H46.0727H46.1235H46.5357H53.0773H53.0969H53.1166H53.1364H53.1563H53.1762H53.1963H53.2164H53.2366H53.2569H53.2772H53.2977H53.3182H53.3388H53.3595H53.3803H53.4011H53.4221H53.4431H53.4642H53.4853H53.5065H53.5279H53.5492H53.5707H53.5922H53.6138H53.6355H53.6573H53.6791H53.701H53.723H53.745H53.7671H53.7893H53.8115H53.8338H53.8562H53.8787H53.9012H53.9238H53.9464H53.9692H53.9919H54.0148H54.0377H54.0607H54.0837H54.1068H54.13H54.1532H54.1765H54.1999H54.2233H54.2467H54.2703H54.2939H54.3175H54.3412H54.365H54.3888H54.4127H54.4366H54.4606H54.4847H54.5088H54.5329H54.5571H54.5814H54.6057H54.6301H54.6545H54.679H54.7035H54.728H54.7527H54.7773H54.8021H54.8268H54.8516H54.8765H54.9014H54.9264H54.9514H54.9764H55.0015H55.0267H55.0518H55.0771H55.1023H55.1277H55.153H55.1784H55.2038H55.2293H55.2548H55.2804H55.306H55.3316H55.3573H55.383H55.4088H55.4346H55.4604H55.4862H55.5121H55.5381H55.564H55.59H55.6161H55.6421H55.6682H55.6943H55.7205H55.7467H55.7729H55.7992H55.8254H55.8518H55.8781H55.9045H55.9309H55.9573H55.9837H56.0102H56.0367H56.0632H56.0898H56.1164H56.143H56.1696H56.1962H56.2229H56.2496H56.2763H56.303H56.3298H56.3565H56.3833H56.4101H56.437H56.4638H56.4907H56.5176H56.5444H56.5714H56.5983H56.6252H56.6522H56.6792H56.7061H56.7331H56.7602H56.7872H56.8142H56.8413H56.8683H56.8954H56.9225H56.9495H56.9766H57.0037H57.0309H57.058H57.0851H57.1122H57.1394H57.1665H57.1937H57.2208H57.248H57.2751H57.3023H57.3295H57.3566H57.3838H57.411H57.4381H57.4653H57.4925H57.5196H57.5468H57.574H57.6011H57.6283H57.6554H57.6826H57.7097H57.7369H57.764H57.7911H57.8183H57.8454H57.8725H57.8996H57.9267H57.9538H57.9809H58.0079H58.035H58.062H58.0891H58.1161H58.1431H58.1701H58.1971H58.2241H58.251H58.278H58.3049H58.3318H58.3587H58.3856H58.4125H58.4393H58.4662H58.493H58.5198H58.5465H58.5733H58.6H58.6267H58.6534H58.6801H58.7067H58.7334H58.76H58.7865H58.8131H58.8396H58.8661H58.8926H58.9191H58.9455H58.9719H58.9982H59.0246H59.0509H59.0772H59.1034H59.1297H59.1559H59.182H59.2082H59.2343H59.2603H59.2864H59.3124H59.3383H59.3643H59.3902H59.416H59.4419H59.4676H59.4934H59.5191H59.5448H59.5704H59.596H59.6216H59.6471H59.6726H59.6981H59.7235H59.7488H59.7741H59.7994H59.8246H59.8498H59.875H59.9001H59.9251H59.9501H59.9751H60H60.0249H60.0497H60.0745H60.0992H60.1239H60.1485H60.1731H60.1976H60.2221H60.2465H60.2709H60.2952H60.3195H60.3437H60.3679H60.392H60.416H60.44H60.464H60.4879H60.5117H60.5355H60.5592H60.5828H60.6064H60.63H60.6534H60.6769H60.7002H60.7235H60.7468H60.7699H60.793H60.8161H60.8391H60.862H60.8849H60.9076H60.9304H60.953H60.9756H60.9982H61.0206H61.043H61.0653H61.0876H61.1098H61.1319H61.1539H61.1759H61.1978H61.2197H61.2414H61.2631H61.2847H61.3063H61.3277H61.3491H61.3704H61.3917H61.4128H61.4339H61.455H61.4759H61.4967H61.5175H61.5382H61.5588H61.5794H61.5998H61.6202H61.6405H61.6607H61.6809H61.7009H61.7209H61.7408H61.7606H61.7803H61.7999H61.8195H61.8389H61.8583H61.8776H61.8968H61.9159H61.9349H61.9538H61.9727H61.9914H62.0101H62.0287H62.0471H62.0655H62.0838H62.102H62.1201H62.1381H62.1561H62.1739H62.1916H62.2092H62.2268H62.2442H62.2616H62.2788H62.2959H62.313H62.3299H62.3468H62.3635H62.3802H62.3967H62.4132H62.4295H62.4458H62.4619H62.4779H62.4939H62.5097H62.5254H62.541H62.5565H62.5719H62.5872Z" fill="#03FFFF" stroke="black" stroke-width="4"/>
</svg>
